<svg width="45" height="10" viewBox="0 0 45 10" fill="none" xmlns="http://www.w3.org/2000/svg">
<path d="M0.69 8C0.59 8 0.54 7.95 0.54 7.85V6.722C0.54 6.67 0.542 6.628 0.546 6.596C0.554 6.564 0.578 6.538 0.618 6.518L2.19 5.798V4.73L0.642 3.77C0.574 3.73 0.54 3.67 0.54 3.59V1.388C0.54 1.324 0.544 1.278 0.552 1.25C0.56 1.218 0.59 1.184 0.642 1.148L2.22 0.0799997C2.26 0.0559995 2.296 0.0379994 2.328 0.0259993C2.364 0.00999951 2.408 0.00199962 2.46 0.00199962H4.08C4.18 0.00199962 4.23 0.0519996 4.23 0.151999V1.172C4.23 1.26 4.2 1.32 4.14 1.352L2.568 2V3.11L4.14 4.01C4.2 4.038 4.23 4.102 4.23 4.202V6.812C4.23 6.844 4.224 6.878 4.212 6.914C4.204 6.95 4.184 6.976 4.152 6.992L2.268 7.928C2.244 7.94 2.214 7.956 2.178 7.976C2.146 7.992 2.114 8 2.082 8H0.69ZM6.86953 8C6.77753 8 6.69753 7.966 6.62953 7.898L5.62753 6.902C5.56353 6.834 5.53153 6.754 5.53153 6.662V2.798H5.27953C5.17953 2.798 5.12953 2.748 5.12953 2.648V1.55C5.12953 1.45 5.17953 1.4 5.27953 1.4H5.53153V0.65C5.53153 0.55 5.58153 0.5 5.68153 0.5H7.27753C7.37753 0.5 7.42753 0.55 7.42753 0.65V1.4H8.00953C8.10953 1.4 8.15953 1.45 8.15953 1.55V2.648C8.15953 2.748 8.10953 2.798 8.00953 2.798H7.42753V6.002C7.42753 6.078 7.45153 6.14 7.49953 6.188L8.08753 6.782C8.12753 6.818 8.14753 6.878 8.14753 6.962V7.85C8.14753 7.95 8.09753 8 7.99753 8H6.86953ZM10.7815 8C10.6855 8 10.6055 7.966 10.5415 7.898L9.34153 6.698C9.27353 6.634 9.23953 6.554 9.23953 6.458V1.55C9.23953 1.45 9.28953 1.4 9.38953 1.4H10.9915C11.0915 1.4 11.1415 1.45 11.1415 1.55V6.218C11.1415 6.406 11.2335 6.5 11.4175 6.5H12.2395V1.55C12.2395 1.45 12.2895 1.4 12.3895 1.4H13.9915C14.0915 1.4 14.1415 1.45 14.1415 1.55V7.85C14.1415 7.95 14.0915 8 13.9915 8H10.7815ZM17.0442 8C16.9522 8 16.8722 7.966 16.8042 7.898L15.6042 6.698C15.5362 6.634 15.5022 6.554 15.5022 6.458V2.942C15.5022 2.846 15.5362 2.766 15.6042 2.702L16.8042 1.502C16.8722 1.434 16.9522 1.4 17.0442 1.4H17.9622C18.0582 1.4 18.1382 1.434 18.2022 1.502L18.5022 1.802V0.151999C18.5022 0.0519996 18.5522 0.00199962 18.6522 0.00199962H20.2542C20.3542 0.00199962 20.4042 0.0519996 20.4042 0.151999V7.85C20.4042 7.95 20.3542 8 20.2542 8H19.0062C18.9542 8 18.9142 7.99 18.8862 7.97C18.8622 7.95 18.8342 7.926 18.8022 7.898L18.5022 7.598L18.2022 7.898C18.1382 7.966 18.0582 8 17.9622 8H17.0442ZM17.7462 6.602H18.1662C18.2942 6.602 18.3822 6.576 18.4302 6.524C18.4782 6.472 18.5022 6.38 18.5022 6.248V2.798H17.7462C17.6142 2.798 17.5242 2.824 17.4762 2.876C17.4282 2.928 17.4042 3.02 17.4042 3.152V6.248C17.4042 6.38 17.4282 6.472 17.4762 6.524C17.5242 6.576 17.6142 6.602 17.7462 6.602ZM23.53 9.998C23.43 9.998 23.38 9.948 23.38 9.848V8.912C23.38 8.836 23.41 8.792 23.47 8.78L24.352 8.558L24.97 8.228C25.03 8.196 25.06 8.134 25.06 8.042V7.058L24.502 7.58C24.434 7.648 24.354 7.682 24.262 7.682L23.242 7.718C23.15 7.718 23.07 7.686 23.002 7.622L21.904 6.518C21.836 6.454 21.802 6.374 21.802 6.278V1.55C21.802 1.45 21.852 1.4 21.952 1.4H23.554C23.654 1.4 23.704 1.45 23.704 1.55V6.068C23.704 6.2 23.728 6.292 23.776 6.344C23.824 6.396 23.912 6.422 24.04 6.422H24.802V1.55C24.802 1.45 24.852 1.4 24.952 1.4H26.554C26.654 1.4 26.704 1.45 26.704 1.55V8.762C26.704 8.882 26.67 8.962 26.602 9.002L25.804 9.512L24.79 9.932C24.73 9.956 24.684 9.972 24.652 9.98C24.624 9.992 24.578 9.998 24.514 9.998H23.53ZM28.7187 8C28.6347 8 28.5747 7.966 28.5387 7.898L27.7887 6.632C27.7447 6.56 27.7367 6.49 27.7647 6.422L29.7987 1.64L29.7447 1.838V1.49L29.8047 1.598H27.9987C27.8987 1.598 27.8487 1.548 27.8487 1.448V0.151999C27.8487 0.0519996 27.8987 0.00199962 27.9987 0.00199962H30.9087C30.9887 0.00199962 31.0487 0.0319996 31.0887 0.0919995L31.9467 1.298C31.9947 1.358 32.0007 1.428 31.9647 1.508L29.9067 6.332L29.9547 5.99V6.56L29.8587 6.398H31.7487C31.8487 6.398 31.8987 6.448 31.8987 6.548V7.85C31.8987 7.95 31.8487 8 31.7487 8H28.7187ZM35.7518 8C35.7118 8 35.6678 7.994 35.6198 7.982C35.5758 7.97 35.5338 7.96 35.4938 7.952L34.4258 7.688L33.2018 7.28C33.0818 7.24 33.0218 7.124 33.0218 6.932V2.942C33.0218 2.846 33.0558 2.766 33.1238 2.702L34.3238 1.502C34.3918 1.434 34.4718 1.4 34.5638 1.4H36.4838C36.5758 1.4 36.6558 1.434 36.7238 1.502L37.9238 2.702C37.9918 2.766 38.0258 2.846 38.0258 2.942V5.402H34.8038L34.7618 6.2L35.6138 6.482L37.1438 6.59C37.2118 6.602 37.2458 6.648 37.2458 6.728V7.85C37.2458 7.95 37.1958 8 37.0958 8H35.7518ZM35.5117 4.46H35.6258C35.8218 4.46 35.9778 4.386 36.0938 4.238C36.2138 4.09 36.2738 3.89 36.2738 3.638V3.518C36.2738 3.27 36.2138 3.072 36.0938 2.924C35.9778 2.776 35.8218 2.702 35.6258 2.702H35.5058C35.3138 2.702 35.1598 2.776 35.0438 2.924C34.9318 3.072 34.8758 3.27 34.8758 3.518V3.638C34.8758 3.89 34.9318 4.09 35.0438 4.238C35.1598 4.386 35.3158 4.46 35.5117 4.46ZM39.4247 8C39.3247 8 39.2747 7.95 39.2747 7.85V1.55C39.2747 1.45 39.3247 1.4 39.4247 1.4H42.6347C42.7267 1.4 42.8067 1.434 42.8747 1.502L44.0747 2.702C44.1427 2.766 44.1767 2.846 44.1767 2.942V7.85C44.1767 7.95 44.1267 8 44.0267 8H42.4247C42.3247 8 42.2747 7.95 42.2747 7.85V3.182C42.2747 2.994 42.1807 2.9 41.9927 2.9H41.1767V7.85C41.1767 7.95 41.1267 8 41.0267 8H39.4247Z" fill="white"/>
</svg>
