<svg width="5" height="8" viewBox="0 0 5 8" fill="none" xmlns="http://www.w3.org/2000/svg">
<path d="M0.69 8C0.59 8 0.54 7.95 0.54 7.85V6.722C0.54 6.67 0.542 6.628 0.546 6.596C0.554 6.564 0.578 6.538 0.618 6.518L2.19 5.798V4.73L0.642 3.77C0.574 3.73 0.54 3.67 0.54 3.59V1.388C0.54 1.324 0.544 1.278 0.552 1.25C0.56 1.218 0.59 1.184 0.642 1.148L2.22 0.0799997C2.26 0.0559995 2.296 0.0379994 2.328 0.0259993C2.364 0.00999951 2.408 0.00199962 2.46 0.00199962H4.08C4.18 0.00199962 4.23 0.0519996 4.23 0.151999V1.172C4.23 1.26 4.2 1.32 4.14 1.352L2.568 2V3.11L4.14 4.01C4.2 4.038 4.23 4.102 4.23 4.202V6.812C4.23 6.844 4.224 6.878 4.212 6.914C4.204 6.95 4.184 6.976 4.152 6.992L2.268 7.928C2.244 7.94 2.214 7.956 2.178 7.976C2.146 7.992 2.114 8 2.082 8H0.69Z" fill="white"/>
</svg>
