<svg xmlns="http://www.w3.org/2000/svg" viewBox="0 0 39.05 10"><defs><style>.cls-1{fill:#fff;}</style></defs><g id="Layer_2" data-name="Layer 2"><g id="Layer_1-2" data-name="Layer 1"><path class="cls-1" d="M1.74,8a.37.37,0,0,1-.24-.1l-1-1a.33.33,0,0,1-.1-.24V2.8H.15A.13.13,0,0,1,0,2.65V1.55A.13.13,0,0,1,.15,1.4H.4V.65A.13.13,0,0,1,.55.5h1.6A.13.13,0,0,1,2.3.65V1.4h.58A.13.13,0,0,1,3,1.55v1.1a.13.13,0,0,1-.15.15H2.3V6a.25.25,0,0,0,.07.19L3,6.78A.24.24,0,0,1,3,7v.89A.13.13,0,0,1,2.87,8ZM5.65,8a.37.37,0,0,1-.24-.1L4.21,6.7a.33.33,0,0,1-.1-.24V1.55a.13.13,0,0,1,.15-.15h1.6A.13.13,0,0,1,6,1.55V6.22a.25.25,0,0,0,.28.28h.82V1.55a.13.13,0,0,1,.15-.15h1.6A.13.13,0,0,1,9,1.55v6.3A.13.13,0,0,1,8.86,8Zm6.26,0a.37.37,0,0,1-.24-.1l-1.2-1.2a.37.37,0,0,1-.1-.24V2.94a.33.33,0,0,1,.1-.24l1.2-1.2a.33.33,0,0,1,.24-.1h.92a.3.3,0,0,1,.24.1l.3.3V.15A.13.13,0,0,1,13.52,0h1.6a.13.13,0,0,1,.15.15v7.7a.13.13,0,0,1-.15.15H13.88a.17.17,0,0,1-.12,0l-.09-.07-.3-.3-.3.3a.33.33,0,0,1-.24.1Zm.71-1.4H13a.37.37,0,0,0,.26-.08.38.38,0,0,0,.07-.27V2.8h-.75c-.14,0-.23,0-.27.07a.43.43,0,0,0-.08.28v3.1a.38.38,0,0,0,.08.27A.35.35,0,0,0,12.62,6.6ZM18.4,10a.13.13,0,0,1-.15-.15V8.91c0-.08,0-.12.09-.13l.88-.22.62-.33A.21.21,0,0,0,19.93,8v-1l-.56.52a.33.33,0,0,1-.24.1l-1,0a.37.37,0,0,1-.24-.1l-1.1-1.1a.37.37,0,0,1-.1-.24V1.55a.13.13,0,0,1,.15-.15h1.6a.13.13,0,0,1,.15.15V6.07a.38.38,0,0,0,.08.27.33.33,0,0,0,.26.08h.76V1.55a.13.13,0,0,1,.15-.15h1.6a.13.13,0,0,1,.15.15V8.76a.25.25,0,0,1-.1.24l-.8.51-1,.42-.14.05-.14,0Zm5.19-2a.21.21,0,0,1-.18-.1l-.75-1.27a.23.23,0,0,1,0-.21l2-4.78-.05.2V1.49l.06.11H22.87a.13.13,0,0,1-.15-.15V.15A.13.13,0,0,1,22.87,0h2.91A.2.2,0,0,1,26,.09l.86,1.21a.2.2,0,0,1,0,.21L24.78,6.33l0-.34v.57l-.1-.16h1.89a.13.13,0,0,1,.15.15v1.3a.13.13,0,0,1-.15.15Zm7,0-.13,0-.13,0L29.3,7.69l-1.23-.41c-.12,0-.18-.16-.18-.35v-4A.33.33,0,0,1,28,2.7l1.2-1.2a.33.33,0,0,1,.24-.1h1.92a.3.3,0,0,1,.24.1l1.2,1.2a.3.3,0,0,1,.11.24V5.4H29.67l0,.8.85.28L32,6.59a.13.13,0,0,1,.11.14V7.85A.13.13,0,0,1,32,8Zm-.24-3.54h.12A.57.57,0,0,0,31,4.24a.93.93,0,0,0,.18-.6V3.52a.93.93,0,0,0-.18-.6.54.54,0,0,0-.46-.22h-.12a.56.56,0,0,0-.47.22,1,1,0,0,0-.16.6v.12a1,1,0,0,0,.16.6A.6.6,0,0,0,30.38,4.46ZM34.3,8a.13.13,0,0,1-.15-.15V1.55a.13.13,0,0,1,.15-.15h3.21a.33.33,0,0,1,.24.1L39,2.7a.33.33,0,0,1,.1.24V7.85A.13.13,0,0,1,38.9,8H37.3a.13.13,0,0,1-.15-.15V3.18c0-.19-.1-.28-.29-.28h-.81V7.85A.13.13,0,0,1,35.9,8Z"/></g></g></svg>